# Blender 4.4.1
# www.blender.org
o RocksV3_3_LOW_(1)
v 17.350985 -17.328566 -1.338647
v 18.788324 -11.008797 -1.803750
v 12.989361 -9.207474 3.748924
v 11.719463 -15.962464 3.949958
v 1.992428 -7.901317 10.390609
v 1.778873 -14.346895 10.389937
v 50.869011 -9.526531 -1.723801
v 51.820305 -9.772535 -8.998834
v 51.985023 -4.061500 -9.338127
v 50.898232 -3.371819 -2.181809
v 46.580044 -2.192601 -11.729507
v 40.364422 0.032908 -14.291832
v 40.663616 2.782044 -11.996193
v 46.412266 0.337441 -9.129738
v 43.890705 2.326527 -1.115250
v 32.755886 6.031742 -11.111023
v 25.459339 9.476887 -0.931274
v 32.500401 6.411619 5.567490
v 13.445593 12.346484 8.214082
v 19.460041 9.574692 12.586320
v 16.402836 9.374207 15.377076
v 43.892521 -2.308447 3.023643
v 34.086048 -1.068408 9.271179
v 21.805439 4.392461 14.741669
v 16.734707 7.290706 16.666328
v 12.300650 11.677505 16.813683
v 12.051550 10.150560 18.397163
v 8.147589 12.978697 19.890512
v 10.578665 13.240466 12.943688
v 5.624899 14.855670 16.300615
v 1.064360 16.180365 17.647959
v 2.025015 14.160634 22.659113
v -4.854402 17.140629 17.696215
v -3.468080 13.356293 24.723719
v -11.154984 15.821374 19.010675
v -6.539934 11.626719 25.999641
v -21.031565 14.653415 19.292887
v -13.386232 12.337992 25.440155
v -5.712207 0.720165 25.591423
v -14.106874 3.385940 24.928314
v -20.769739 11.421250 22.296898
v -16.925610 10.900381 24.714142
v -22.060421 -4.591449 19.563774
v -2.812633 -4.632385 24.715065
v -27.285946 10.825980 17.408264
v -30.243359 -4.998682 14.206367
v -29.147150 13.997468 12.879563
v -30.253260 15.196414 4.171472
v -30.853708 14.154968 9.524415
v -25.165979 16.023701 3.623979
v -15.774011 16.551594 10.882157
v -9.614526 16.682316 15.129487
v -22.191980 13.692200 -3.397841
v -31.284449 11.881264 -2.917480
v -19.250956 11.346940 -10.146049
v -22.844692 10.080359 -10.998405
v -15.648447 8.546268 -15.742881
v -10.558625 12.592358 2.093392
v -6.853395 9.247215 -8.919494
v -7.459314 5.950289 -19.859528
v -1.572084 12.311225 6.154489
v 3.858511 8.627437 -7.969650
v 4.367544 4.168414 -20.594955
v 4.959257 12.677062 7.724748
v 13.282835 8.977568 -4.478813
v 20.024326 5.499957 -14.841545
v 14.293927 1.981580 -21.153358
v 7.456113 1.964836 -22.610245
v 12.843244 4.158485 -19.343491
v 22.295177 0.282809 -19.270210
v 33.255474 0.238563 -16.064278
v 6.003911 -5.662673 21.618736
v 3.696485 3.193442 21.802284
v 14.865735 0.059077 17.815727
v 15.565365 -6.737786 18.051147
v 33.977207 -9.527741 9.826484
v 43.718105 -10.166580 3.500526
v 46.001072 -11.212646 -11.682817
v 38.423450 -11.629280 -14.571534
v 30.990557 -11.197327 -16.554749
v 20.795870 -11.072166 -19.280258
v 12.260616 -10.903737 -21.022606
v 6.944248 -10.872790 -22.540329
v 1.626194 -10.659405 -26.319405
v 1.513028 -1.360089 -26.711952
v -12.364680 -3.046835 -27.125740
v -13.999584 -10.939371 -25.692566
v -19.093136 -4.617348 -26.461388
v -19.312466 -8.306109 -25.587791
v -27.251278 -0.861997 -18.636322
v -33.194714 5.132345 -7.649742
v -30.297878 -4.038989 -15.607338
v -34.840221 -2.760610 -7.493713
v -23.909710 -2.942903 -22.443977
v -24.893703 -7.129476 -20.664124
v -21.219616 -9.741947 -15.214387
v -24.106487 -10.283048 -0.660058
v -29.080761 -7.027459 -5.693673
v -20.392208 -10.250515 -12.797502
v -19.573635 -9.431445 -13.564027
v -15.035999 -9.771089 -11.768983
v -15.775004 -12.255785 -10.437417
v -11.096150 -10.448192 -11.498780
v -11.358502 -13.734079 -9.285775
v -1.413952 -10.348964 -11.791947
v -1.659718 -14.518498 -9.995355
v -11.278155 -10.612993 -18.134506
v 1.855679 -10.983863 -17.098259
v 26.758411 -10.751895 -7.913156
v -8.754078 -12.648911 13.095260
v -7.998105 -6.749754 13.594352
v -18.164087 -10.360061 14.641944
v -19.054409 -6.062399 15.386093
v -26.565563 -6.447464 10.173728
v -25.673367 -9.825787 8.430465
v -32.207058 -6.629910 4.167182
v -32.953045 -5.617346 9.481010
v -17.835463 -11.962556 2.603164
v -10.281750 -14.237568 2.745566
v -0.142064 -15.576234 1.931754
v -35.338223 -3.925685 5.391021
v -35.165401 -4.004812 -2.099755
v -34.021893 5.599472 0.085549
v -33.943493 5.506694 7.304490
vn 0.1185 -0.9921 -0.0411
vn 0.1953 -0.8859 0.4207
vn 0.4479 -0.8106 -0.3772
vn -0.0150 -0.7250 0.6886
vn 0.2131 -0.6562 0.7239
vn 0.6133 -0.6331 -0.4723
vn 0.8187 0.4045 0.4076
vn 0.6291 -0.6484 0.4286
vn 0.3452 0.1684 -0.9233
vn 0.3819 0.8589 -0.3412
vn 0.5359 0.8354 -0.1220
vn 0.8122 0.3413 -0.4730
vn 0.4434 0.8502 0.2839
vn 0.1500 0.9220 -0.3570
vn 0.4531 0.8325 0.3189
vn 0.2276 0.9685 -0.1008
vn 0.4049 0.8413 0.3582
vn 0.1928 0.9737 -0.1217
vn 0.5154 0.7329 0.4442
vn 0.5739 0.2701 0.7731
vn 0.4889 0.3294 0.8077
vn 0.5270 0.2274 0.8189
vn 0.4709 0.2538 0.8449
vn 0.3855 0.0920 0.9181
vn 0.6318 0.7294 0.2623
vn 0.4381 0.3722 0.8182
vn 0.3529 0.9356 -0.0061
vn 0.2614 0.9645 0.0362
vn 0.3003 0.5920 0.7479
vn 0.1654 0.9811 0.1000
vn 0.2124 0.4369 0.8741
vn -0.0813 0.9335 0.3494
vn 0.1483 0.9824 0.1139
vn -0.0869 0.5388 0.8379
vn 0.1795 0.3877 0.9042
vn -0.2797 -0.1979 0.9395
vn 0.0529 -0.1227 0.9910
vn -0.2078 0.9082 0.3633
vn -0.4817 0.0299 0.8758
vn -0.6921 0.2937 0.6593
vn -0.4034 -0.5192 0.7535
vn 0.0352 -0.7161 0.6971
vn -0.6136 0.1311 0.7786
vn -0.6136 0.6876 0.3881
vn -0.0178 0.9879 -0.1542
vn -0.6569 0.7444 -0.1199
vn -0.6994 0.6683 0.2533
vn 0.0374 0.9932 -0.1107
vn 0.0640 0.9801 -0.1879
vn -0.6216 0.6691 -0.4072
vn -0.0236 0.9679 -0.2503
vn -0.3833 0.6971 -0.6060
vn -0.1047 0.9483 -0.2995
vn -0.0862 0.8124 -0.5767
vn 0.1731 0.9494 -0.2620
vn 0.1248 0.9546 -0.2706
vn 0.0095 0.8415 -0.5402
vn 0.0794 0.9551 -0.2854
vn 0.0734 0.9569 -0.2809
vn 0.0453 0.9613 -0.2717
vn 0.0510 0.9587 -0.2799
vn 0.1060 0.8901 -0.4432
vn 0.0930 0.4514 -0.8875
vn 0.1050 0.8962 -0.4310
vn 0.2428 0.1900 -0.9513
vn 0.1727 0.8425 -0.5103
vn 0.2618 0.2393 -0.9350
vn 0.1789 0.3070 -0.9347
vn 0.4788 0.3064 -0.8227
vn 0.3594 0.0363 0.9325
vn 0.3811 0.0602 0.9226
vn 0.0348 -0.4863 0.8731
vn 0.1823 -0.7313 0.6572
vn 0.2145 -0.8137 0.5403
vn 0.0026 -0.8683 -0.4960
vn 0.1384 -0.9070 -0.3977
vn 0.2353 -0.3722 -0.8978
vn 0.1493 -0.7332 -0.6634
vn 0.2793 -0.7073 -0.6494
vn 0.4046 -0.2960 -0.8653
vn 0.1533 0.3348 -0.9297
vn 0.1844 -0.5947 -0.7825
vn -0.0838 0.3175 -0.9445
vn -0.0972 -0.7869 -0.6094
vn -0.1479 0.2233 -0.9635
vn -0.4466 -0.6758 -0.5864
vn -0.7332 0.4636 -0.4975
vn -0.8229 -0.3833 -0.4194
vn -0.6769 0.4576 -0.5765
vn -0.5951 -0.7367 -0.3212
vn -0.6916 0.3719 -0.6192
vn -0.3435 -0.9298 -0.1322
vn -0.4890 -0.8591 -0.1508
vn -0.3841 -0.9182 -0.0971
vn -0.3552 -0.9331 -0.0569
vn -0.0327 -0.9995 -0.0051
vn -0.2686 -0.9483 -0.1688
vn -0.0454 -0.9193 -0.3910
vn -0.1785 -0.9677 -0.1782
vn 0.1006 -0.8607 -0.4991
vn -0.0154 -0.9991 0.0390
vn -0.0515 -0.8493 -0.5254
vn -0.0295 -0.9200 -0.3907
vn -0.0313 -0.9993 0.0200
vn 0.0079 -0.9990 0.0434
vn 0.3873 -0.4100 0.8258
vn 0.4114 -0.5682 0.7126
vn 0.0458 -0.8181 0.5732
vn 0.0514 -0.8454 0.5317
vn -0.1051 -0.7704 0.6289
vn -0.1168 -0.8612 0.4946
vn -0.3155 -0.8243 0.4701
vn -0.3263 -0.5134 0.7937
vn -0.3776 -0.9085 0.1792
vn -0.4834 -0.8752 -0.0206
vn -0.8104 -0.3256 0.4871
vn -0.2521 -0.9660 0.0575
vn -0.1931 -0.9785 0.0732
vn -0.1018 -0.9940 0.0399
vn -0.9392 -0.3430 -0.0178
vn -0.8978 -0.4364 -0.0597
vn -0.7771 -0.2953 -0.5557
vn -0.9680 0.2466 -0.0471
vn -0.9420 0.1582 0.2960
vt 0.457085 0.297150
vt 0.451823 0.248908
vt 0.464478 0.268412
vt 0.428754 0.261057
vt 0.441361 0.201773
vt 0.431672 0.444546
vt 0.390477 0.452039
vt 0.405423 0.430548
vt 0.202178 0.426681
vt 0.192244 0.391736
vt 0.214749 0.415045
vt 0.224235 0.446798
vt 0.255375 0.430172
vt 0.245814 0.388831
vt 0.182444 0.353237
vt 0.256599 0.325636
vt 0.214618 0.302862
vt 0.267133 0.256009
vt 0.235206 0.235645
vt 0.276275 0.238485
vt 0.275137 0.391479
vt 0.293246 0.268593
vt 0.294573 0.337728
vt 0.288429 0.240148
vt 0.283040 0.213672
vt 0.272365 0.215846
vt 0.276187 0.192259
vt 0.250603 0.214784
vt 0.255311 0.187372
vt 0.276545 0.162671
vt 0.253306 0.165757
vt 0.280334 0.136899
vt 0.244169 0.112086
vt 0.245002 0.141254
vt 0.273132 0.092467
vt 0.285313 0.121153
vt 0.312621 0.077831
vt 0.334694 0.118370
vt 0.234007 0.067566
vt 0.270719 0.074975
vt 0.378047 0.076624
vt 0.392830 0.020553
vt 0.434781 0.078896
vt 0.367886 0.148406
vt 0.357364 0.121544
vt 0.433395 0.002441
vt 0.219659 0.033795
vt 0.253078 0.059813
vt 0.176872 0.043063
vt 0.160339 0.075575
vt 0.155780 0.053107
vt 0.194169 0.043683
vt 0.203491 0.104508
vt 0.228681 0.124795
vt 0.122071 0.054650
vt 0.131957 0.096405
vt 0.094294 0.102088
vt 0.104455 0.117725
vt 0.081915 0.141763
vt 0.168897 0.142189
vt 0.123739 0.174250
vt 0.072019 0.185833
vt 0.198675 0.175783
vt 0.143606 0.221571
vt 0.216829 0.201048
vt 0.175911 0.257410
vt 0.139761 0.305446
vt 0.076755 0.261783
vt 0.105067 0.280617
vt 0.096106 0.292641
vt 0.084339 0.242882
vt 0.116564 0.329979
vt 0.152997 0.373937
vt 0.178421 0.400832
vt 0.324865 0.172979
vt 0.326087 0.239925
vt 0.360624 0.195146
vt 0.358873 0.246756
vt 0.337729 0.351113
vt 0.376970 0.343754
vt 0.357833 0.411765
vt 0.451982 0.426174
vt 0.432934 0.465340
vt 0.469745 0.464109
vt 0.478170 0.402702
vt 0.504572 0.449759
vt 0.533290 0.423921
vt 0.501273 0.378110
vt 0.571893 0.379984
vt 0.533963 0.340958
vt 0.603867 0.352203
vt 0.624931 0.324851
vt 0.559443 0.308538
vt 0.577185 0.288155
vt 0.635703 0.287101
vt 0.600389 0.267395
vt 0.041545 0.241050
vt 0.658216 0.214460
vt 0.623903 0.199461
vt 0.651424 0.173870
vt 0.633920 0.174339
vt 0.013357 0.175501
vt 0.085128 0.043969
vt 0.608428 0.102293
vt 0.595120 0.036707
vt 0.634196 0.105998
vt 0.621896 0.139488
vt 0.643697 0.136684
vt 0.015352 0.112919
vt 0.002441 0.142400
vt 0.030996 0.090559
vt 0.590536 0.149999
vt 0.560179 0.098280
vt 0.577862 0.150257
vt 0.530386 0.115537
vt 0.581254 0.155800
vt 0.557887 0.167014
vt 0.560886 0.191037
vt 0.544775 0.184222
vt 0.530516 0.224750
vt 0.588289 0.200007
vt 0.568183 0.174064
vt 0.546214 0.235322
vt 0.562263 0.257761
vt 0.470394 0.342134
vt 0.391651 0.393640
vt 0.414240 0.200906
vt 0.447699 0.156777
vt 0.422731 0.151145
vt 0.456424 0.116817
vt 0.444334 0.101777
vt 0.483577 0.082871
vt 0.475899 0.060174
vt 0.493174 0.096775
vt 0.520037 0.072246
vt 0.499462 0.059915
vt 0.506864 0.136882
vt 0.493511 0.167430
vt 0.478794 0.207145
vt 0.519738 0.053335
vt 0.551711 0.063207
vt 0.576279 0.069777
vt 0.553150 0.016607
vt 0.508645 0.010227
vt 0.120930 0.018309
vt 0.157486 0.003822
vt 0.373979 0.034993
s 1
f 2/1/1 4/2/2 1/3/3
f 3/4/4 6/5/5 4/2/2
f 8/6/6 10/7/7 7/8/8
f 11/9/9 13/10/10 14/11/11
f 9/12/12 11/9/9 14/11/11
f 14/11/11 10/13/7 9/12/12
f 13/10/10 15/14/13 14/11/11
f 16/15/14 18/16/15 15/14/13
f 17/17/16 20/18/17 18/16/15
f 19/19/18 21/20/19 20/18/17
f 10/13/7 15/14/13 22/21/20
f 18/16/15 22/21/20 15/14/13
f 18/16/15 24/22/21 23/23/22
f 20/18/17 25/24/23 24/22/21
f 21/20/19 27/25/24 25/24/23
f 27/25/24 26/26/25 28/27/26
f 29/28/27 21/20/19 19/19/18
f 29/28/27 28/27/26 26/26/25
f 30/29/28 32/30/29 28/27/26
f 31/31/30 34/32/31 32/30/29
f 35/33/32 34/32/31 33/34/33
f 35/33/32 38/35/34 36/36/35
f 36/36/35 40/37/36 39/38/37
f 37/39/38 42/40/39 38/35/34
f 40/41/36 41/42/40 43/43/41
f 42/40/39 40/37/36 38/35/34
f 40/41/36 44/44/42 39/45/37
f 45/46/43 43/43/41 41/42/40
f 37/39/38 45/47/43 41/48/40
f 49/49/44 50/50/45 48/51/46
f 47/52/47 51/53/48 50/50/45
f 51/53/48 35/33/32 52/54/49
f 52/54/49 35/33/32 33/34/33
f 50/50/45 54/55/50 48/51/46
f 53/56/51 56/57/52 54/55/50
f 56/57/52 55/58/53 57/59/54
f 58/60/55 50/50/45 51/53/48
f 58/60/55 55/58/53 53/56/51
f 57/59/54 59/61/56 60/62/57
f 58/60/55 52/54/49 61/63/58
f 62/64/59 60/62/57 59/61/56
f 61/63/58 59/61/56 58/60/55
f 30/29/28 64/65/60 31/31/30
f 33/34/33 61/63/58 52/54/49
f 29/28/27 64/65/60 30/29/28
f 19/19/18 64/65/60 29/28/27
f 31/31/30 64/65/60 33/34/33
f 64/65/60 62/64/59 61/63/58
f 65/66/61 19/19/18 17/17/16
f 17/17/16 66/67/62 65/66/61
f 68/68/63 69/69/64 67/70/65
f 62/64/59 69/69/64 63/71/66
f 65/66/61 66/67/62 69/69/64
f 67/70/65 66/67/62 70/72/67
f 71/73/68 13/10/10 12/74/69
f 71/73/68 66/67/62 16/15/14
f 44/44/42 73/75/70 39/45/37
f 28/27/26 32/30/29 73/75/70
f 32/30/29 34/32/31 73/75/70
f 34/32/31 39/38/37 73/75/70
f 27/25/24 73/75/70 74/76/71
f 74/76/71 25/24/23 27/25/24
f 25/24/23 74/76/71 24/22/21
f 74/76/71 72/77/72 75/78/73
f 24/22/21 74/76/71 23/23/22
f 23/79/22 75/78/73 76/80/74
f 76/80/74 22/81/20 23/79/22
f 22/81/20 7/8/8 10/7/7
f 78/82/75 9/83/12 8/6/6
f 11/84/9 79/85/76 12/86/69
f 71/87/68 79/85/76 80/88/77
f 70/89/67 80/88/77 81/90/78
f 81/90/78 67/91/65 70/89/67
f 68/92/63 82/93/79 83/94/80
f 85/95/81 83/94/80 84/96/82
f 63/71/66 85/97/81 60/62/57
f 86/98/83 84/96/82 87/99/84
f 88/100/85 87/99/84 89/101/86
f 60/62/57 85/97/81 86/102/83
f 86/102/83 57/59/54 60/62/57
f 56/57/52 91/103/87 54/55/50
f 92/104/88 91/105/87 90/106/89
f 90/106/89 95/107/90 92/104/88
f 94/108/91 89/101/86 95/107/90
f 94/109/91 57/59/54 88/110/85
f 57/59/54 90/111/89 56/57/52
f 96/112/92 89/101/86 87/99/84
f 98/113/93 99/114/94 97/115/95
f 96/112/92 100/116/96 99/114/94
f 100/116/96 102/117/97 99/114/94
f 102/117/97 103/118/98 104/119/99
f 103/118/98 106/120/100 104/119/99
f 107/121/101 96/112/92 87/99/84
f 100/116/96 107/121/101 101/122/102
f 101/122/102 107/121/101 103/118/98
f 107/121/101 105/123/103 103/118/98
f 107/121/101 84/96/82 108/124/104
f 2/1/1 106/120/100 105/123/103
f 2/1/1 108/124/104 109/125/105
f 84/96/82 83/94/80 108/124/104
f 108/124/104 83/94/80 82/93/79
f 82/93/79 109/125/105 108/124/104
f 109/125/105 80/88/77 79/85/76
f 80/88/77 109/125/105 81/90/78
f 7/8/8 78/82/75 8/6/6
f 77/126/106 79/85/76 78/82/75
f 76/80/74 109/125/105 77/126/106
f 3/4/4 76/80/74 75/78/73
f 5/127/107 75/78/73 72/77/72
f 110/128/108 5/127/107 111/129/109
f 44/44/42 5/127/107 72/77/72
f 112/130/110 111/129/109 113/131/111
f 113/131/111 44/44/42 43/43/41
f 114/132/112 43/43/41 46/133/113
f 112/130/110 114/132/112 115/134/114
f 115/134/114 114/132/112 116/135/115
f 114/132/112 117/136/116 116/135/115
f 92/104/88 96/112/92 98/113/93
f 97/115/95 102/117/97 118/137/117
f 118/137/117 104/119/99 119/138/118
f 106/120/100 119/138/118 104/119/99
f 6/5/5 119/138/118 120/139/119
f 120/139/119 4/2/2 6/5/5
f 4/2/2 106/120/100 1/3/3
f 110/128/108 118/137/117 119/138/118
f 115/134/114 118/137/117 112/130/110
f 97/115/95 116/135/115 98/113/93
f 121/140/120 116/135/115 117/136/116
f 122/141/121 98/113/93 116/135/115
f 93/142/122 92/104/88 122/141/121
f 91/105/87 122/141/121 123/143/123
f 123/143/123 121/140/120 124/144/124
f 54/55/50 123/145/123 48/51/46
f 48/51/46 124/146/124 49/49/44
f 47/52/47 124/146/124 45/47/43
f 124/144/124 46/133/113 45/46/43
f 124/144/124 121/140/120 117/136/116
f 2/1/1 3/4/4 4/2/2
f 3/4/4 5/127/107 6/5/5
f 8/6/6 9/83/12 10/7/7
f 11/9/9 12/74/69 13/10/10
f 14/11/11 15/14/13 10/13/7
f 13/10/10 16/15/14 15/14/13
f 16/15/14 17/17/16 18/16/15
f 17/17/16 19/19/18 20/18/17
f 18/16/15 23/23/22 22/21/20
f 18/16/15 20/18/17 24/22/21
f 20/18/17 21/20/19 25/24/23
f 21/20/19 26/26/25 27/25/24
f 29/28/27 26/26/25 21/20/19
f 29/28/27 30/29/28 28/27/26
f 30/29/28 31/31/30 32/30/29
f 31/31/30 33/34/33 34/32/31
f 35/33/32 36/36/35 34/32/31
f 35/33/32 37/39/38 38/35/34
f 36/36/35 38/35/34 40/37/36
f 37/39/38 41/48/40 42/40/39
f 40/41/36 42/147/39 41/42/40
f 40/41/36 43/43/41 44/44/42
f 45/46/43 46/133/113 43/43/41
f 37/39/38 47/52/47 45/47/43
f 49/49/44 47/52/47 50/50/45
f 47/52/47 37/39/38 51/53/48
f 51/53/48 37/39/38 35/33/32
f 50/50/45 53/56/51 54/55/50
f 53/56/51 55/58/53 56/57/52
f 58/60/55 53/56/51 50/50/45
f 58/60/55 59/61/56 55/58/53
f 57/59/54 55/58/53 59/61/56
f 58/60/55 51/53/48 52/54/49
f 62/64/59 63/71/66 60/62/57
f 61/63/58 62/64/59 59/61/56
f 33/34/33 64/65/60 61/63/58
f 64/65/60 65/66/61 62/64/59
f 65/66/61 64/65/60 19/19/18
f 17/17/16 16/15/14 66/67/62
f 68/68/63 63/71/66 69/69/64
f 62/64/59 65/66/61 69/69/64
f 67/70/65 69/69/64 66/67/62
f 71/73/68 16/15/14 13/10/10
f 71/73/68 70/72/67 66/67/62
f 44/44/42 72/77/72 73/75/70
f 34/32/31 36/36/35 39/38/37
f 27/25/24 28/27/26 73/75/70
f 74/76/71 73/75/70 72/77/72
f 23/79/22 74/76/71 75/78/73
f 76/80/74 77/126/106 22/81/20
f 22/81/20 77/126/106 7/8/8
f 78/82/75 11/84/9 9/83/12
f 11/84/9 78/82/75 79/85/76
f 71/87/68 12/86/69 79/85/76
f 70/89/67 71/87/68 80/88/77
f 81/90/78 82/93/79 67/91/65
f 68/92/63 67/91/65 82/93/79
f 85/95/81 68/92/63 83/94/80
f 63/71/66 68/68/63 85/97/81
f 86/98/83 85/95/81 84/96/82
f 88/100/85 86/98/83 87/99/84
f 86/102/83 88/110/85 57/59/54
f 56/57/52 90/111/89 91/103/87
f 92/104/88 93/142/122 91/105/87
f 90/106/89 94/108/91 95/107/90
f 94/108/91 88/100/85 89/101/86
f 57/59/54 94/109/91 90/111/89
f 96/112/92 95/107/90 89/101/86
f 98/113/93 96/112/92 99/114/94
f 100/116/96 101/122/102 102/117/97
f 102/117/97 101/122/102 103/118/98
f 103/118/98 105/123/103 106/120/100
f 107/121/101 100/116/96 96/112/92
f 107/121/101 108/124/104 105/123/103
f 107/121/101 87/99/84 84/96/82
f 2/1/1 1/3/3 106/120/100
f 2/1/1 105/123/103 108/124/104
f 82/93/79 81/90/78 109/125/105
f 7/8/8 77/126/106 78/82/75
f 77/126/106 109/125/105 79/85/76
f 76/80/74 2/1/1 109/125/105
f 3/4/4 2/1/1 76/80/74
f 5/127/107 3/4/4 75/78/73
f 110/128/108 6/5/5 5/127/107
f 44/44/42 111/129/109 5/127/107
f 112/130/110 110/128/108 111/129/109
f 113/131/111 111/129/109 44/44/42
f 114/132/112 113/131/111 43/43/41
f 112/130/110 113/131/111 114/132/112
f 114/132/112 46/133/113 117/136/116
f 92/104/88 95/107/90 96/112/92
f 97/115/95 99/114/94 102/117/97
f 118/137/117 102/117/97 104/119/99
f 106/120/100 120/139/119 119/138/118
f 6/5/5 110/128/108 119/138/118
f 4/2/2 120/139/119 106/120/100
f 110/128/108 112/130/110 118/137/117
f 115/134/114 97/115/95 118/137/117
f 97/115/95 115/134/114 116/135/115
f 121/140/120 122/141/121 116/135/115
f 122/141/121 92/104/88 98/113/93
f 91/105/87 93/142/122 122/141/121
f 123/143/123 122/141/121 121/140/120
f 54/55/50 91/103/87 123/145/123
f 48/51/46 123/145/123 124/146/124
f 47/52/47 49/49/44 124/146/124
f 124/144/124 117/136/116 46/133/113
